<?xml version="1.0" standalone="no"?>
<!DOCTYPE svg PUBLIC "-//W3C//DTD SVG 20010904//EN"
 "http://www.w3.org/TR/2001/REC-SVG-20010904/DTD/svg10.dtd">
<svg version="1.0" xmlns="http://www.w3.org/2000/svg"
 width="700.000000pt" height="700.000000pt" viewBox="0 0 700.000000 700.000000"
 preserveAspectRatio="xMidYMid meet">
<metadata>
Created by potrace 1.11, written by Peter Selinger 2001-2013
</metadata>
<g transform="translate(0.000000,700.000000) scale(0.100000,-0.100000)"
fill="#000000" stroke="none">
<path d="M4268 6846 c-23 -11 -23 -15 -26 -219 -2 -193 -4 -208 -20 -203 -9 3
-58 15 -108 26 -407 88 -848 86 -1264 -6 -63 -14 -119 -27 -125 -27 -6 -1 -11
68 -12 188 -1 105 -2 198 -2 208 -2 40 -39 40 -201 -3 -425 -113 -752 -266
-1000 -468 -256 -207 -407 -449 -440 -702 -8 -60 -10 -698 -8 -2195 l3 -2110
23 -80 c111 -393 489 -734 1052 -948 152 -58 412 -134 492 -144 78 -10 78 -11
78 224 l0 205 28 -5 c15 -3 90 -19 167 -35 77 -17 183 -36 235 -44 128 -17
593 -17 720 1 86 12 286 49 353 66 l27 7 0 -204 c0 -222 1 -228 55 -228 45 0
362 82 475 122 371 134 627 286 841 498 161 160 249 303 302 488 l22 77 3
2110 c2 1497 0 2135 -8 2195 -63 482 -549 906 -1299 1130 -209 63 -336 89
-363 76z m254 -152 c462 -123 879 -356 1085 -606 114 -140 158 -218 199 -355
24 -80 26 -105 28 -274 l1 -185 -47 -95 c-56 -111 -110 -185 -214 -291 -217
-224 -572 -417 -984 -536 -90 -27 -232 -62 -246 -62 -2 0 -4 16 -4 35 0 32 26
63 335 388 184 194 346 368 359 387 139 189 178 287 178 440 0 174 -71 328
-222 481 -134 135 -304 240 -537 330 l-113 43 0 173 0 173 28 -6 c15 -3 84
-21 154 -40z m-1914 -140 l-3 -176 -105 -42 c-58 -24 -132 -57 -166 -74 -179
-91 -378 -260 -457 -389 -136 -222 -133 -454 8 -673 35 -56 203 -239 653 -711
72 -76 72 -76 72 -132 l0 -56 -32 6 c-61 11 -300 83 -396 119 -132 49 -317
138 -430 207 -257 157 -435 337 -540 546 l-47 95 2 185 c1 169 3 194 27 274
41 138 100 241 211 369 188 216 520 416 900 541 98 33 277 84 298 86 4 1 6
-78 5 -175z m1143 -84 c129 -13 326 -45 416 -68 l68 -18 3 -844 c1 -464 -1
-847 -5 -851 -12 -12 -287 -66 -408 -80 -142 -17 -518 -17 -660 0 -127 15
-388 67 -425 84 l-25 12 0 835 0 834 88 22 c102 27 295 60 417 73 122 12 410
13 531 1z m724 -167 c445 -170 723 -484 702 -793 -9 -136 -56 -238 -187 -407
-65 -85 -208 -191 -362 -269 -54 -27 -267 -114 -280 -114 -5 0 -8 367 -8 816
l0 815 23 -6 c12 -4 63 -23 112 -42z m-1867 -1166 l-3 -405 -105 42 c-209 83
-347 172 -467 302 -165 179 -219 295 -217 469 1 76 6 116 23 165 82 240 337
463 681 595 l85 33 3 -398 c1 -219 1 -581 0 -803z m-1346 -82 c207 -317 678
-602 1229 -744 l114 -29 3 -776 2 -775 -42 -11 c-242 -59 -434 -127 -633 -225
-356 -174 -593 -380 -729 -635 l-46 -85 0 1730 1 1730 37 -70 c21 -38 49 -88
64 -110z m4578 -1552 l-1 -1728 -37 70 c-65 122 -114 187 -217 291 -145 146
-283 243 -495 349 -193 97 -463 192 -677 240 l-73 17 0 763 c0 719 1 764 18
769 9 3 56 14 105 25 299 70 631 210 869 368 218 144 403 345 482 521 10 23
21 42 23 42 1 0 3 -777 3 -1727z m-1247 1176 l-248 -262 -3 138 c-1 76 1 142
5 145 4 4 58 26 118 50 123 47 235 103 310 154 28 19 54 34 58 35 5 1 -103
-117 -240 -260z m-2233 142 c41 -21 114 -53 163 -71 l87 -33 0 -126 -1 -126
-56 60 c-31 33 -129 136 -217 229 -151 160 -158 168 -106 138 30 -18 89 -50
130 -71z m426 -155 c176 -51 464 -86 709 -86 243 0 451 25 723 87 l22 5 0
-184 c0 -227 4 -220 -146 -243 -360 -53 -823 -53 -1189 0 l-100 15 -47 49 -48
50 0 160 c0 180 -5 170 76 147z m-51 -386 c3 -6 -1 -7 -9 -4 -18 7 -21 14 -7
14 6 0 13 -4 16 -10z m47 -48 c73 -73 688 -728 688 -732 0 -3 -155 -170 -345
-370 -263 -278 -352 -366 -375 -371 -16 -4 -32 -4 -35 -1 -3 3 -5 343 -5 755
l0 749 28 -7 c15 -3 35 -14 44 -23z m1458 -728 c0 -481 -3 -744 -10 -742 -15
5 -700 732 -698 740 3 8 701 748 706 748 1 0 2 -336 2 -746z m-1244 711 c181
-23 480 -33 691 -24 171 8 422 32 466 45 9 3 17 3 17 1 0 -9 -661 -702 -670
-702 -7 0 -573 591 -655 684 l-19 22 24 -5 c14 -3 79 -13 146 -21z m834 -1089
c176 -186 319 -341 316 -343 -3 -3 -60 2 -128 11 -319 41 -718 41 -1036 0 -68
-9 -125 -14 -128 -11 -6 6 639 687 648 684 3 -1 151 -154 328 -341z m194 -345
c142 -19 150 -21 183 -52 l33 -33 0 -184 c0 -171 -1 -184 -17 -177 -37 15
-254 56 -378 71 -159 19 -497 22 -650 5 -127 -14 -347 -54 -419 -76 -27 -8
-53 -15 -58 -15 -4 0 -8 72 -8 161 l0 161 58 59 57 59 110 15 c209 29 301 33
620 30 251 -3 352 -8 469 -24z m-1279 -51 c-20 -22 -35 -26 -35 -10 0 6 10 15
23 20 32 13 32 12 12 -10z m1842 -65 c580 -163 1035 -478 1207 -835 l41 -85
-1 -190 c-1 -197 -8 -245 -53 -366 -48 -127 -165 -285 -296 -401 -272 -239
-650 -416 -1118 -522 l-27 -6 2 175 3 176 100 38 c347 131 595 322 707 544 38
77 68 195 68 272 0 126 -60 285 -148 395 -34 42 -144 159 -557 594 -173 183
-175 185 -175 229 l0 45 63 -14 c34 -8 117 -30 184 -49z m-2044 -149 c-37 -39
-183 -193 -323 -341 -140 -149 -272 -290 -292 -315 -88 -110 -148 -269 -148
-395 0 -77 30 -195 68 -272 110 -216 356 -409 690 -538 l72 -28 0 -179 c0
-166 -1 -179 -17 -174 -10 3 -47 12 -83 21 -471 119 -901 357 -1121 622 -109
131 -154 213 -195 350 -24 80 -26 105 -27 283 l-2 195 41 85 c180 375 662 695
1289 858 l110 29 3 -64 3 -65 -68 -72z m2121 -270 c127 -134 152 -164 116
-142 -74 45 -300 152 -372 176 l-68 22 0 141 1 142 81 -85 c45 -47 153 -161
242 -254z m-2054 161 l0 -124 -42 -12 c-50 -15 -282 -126 -348 -167 -34 -21 9
29 170 199 118 125 216 227 218 227 1 0 2 -56 2 -123z m1218 -12 c128 -16 306
-47 375 -67 l37 -11 0 -848 0 -848 -37 -10 c-329 -88 -765 -110 -1128 -55
-117 17 -322 62 -348 75 -16 9 -17 57 -15 841 l3 832 45 13 c275 82 748 116
1068 78z m768 -209 c200 -96 309 -179 428 -326 110 -134 157 -253 157 -398 0
-219 -137 -432 -383 -595 -104 -69 -257 -146 -370 -186 l-88 -30 0 819 0 819
72 -25 c40 -13 123 -49 184 -78z m-1986 -716 c0 -440 -2 -800 -5 -800 -15 0
-144 54 -225 95 -363 181 -562 428 -561 697 0 178 59 299 240 491 69 73 181
152 301 213 76 38 229 103 243 104 4 0 7 -360 7 -800z"/>
</g>
</svg>
